<svg xmlns="http://www.w3.org/2000/svg" xmlns:xlink="http://www.w3.org/1999/xlink" width="219" height="82" viewBox="0 0 219 82">
  <defs>
    <style>
      .cls-1 {
        clip-path: url(#clip-razr-plus-new-pdp-lockup-ffffff-);
      }

      .cls-2 {
        fill: #fff;
      }
    </style>
    <clipPath id="clip-razr-plus-new-pdp-lockup-ffffff-">
      <rect width="219" height="82"/>
    </clipPath>
  </defs>
  <g id="razr-plus-new-pdp-lockup-ffffff-" class="cls-1">
    <g id="Group_8863" data-name="Group 8863">
      <path id="Path_17180" data-name="Path 17180" class="cls-2" d="M-1414.438-360.5a32.9,32.9,0,0,0-32.962,32.81,32.9,32.9,0,0,0,32.962,32.81,32.96,32.96,0,0,0,33.038-32.81A32.863,32.863,0,0,0-1414.438-360.5Zm20.782,48.416c-2.969-9.668-6.775-15.606-11.19-15.606-3.578,0-6.851,3.959-9.592,10.81-2.74-6.775-6.014-10.81-9.592-10.81-4.339,0-8.145,5.862-11.114,15.606h-2.208l13.17-40.194,9.82,29.993,9.82-29.993,13.17,40.194Z" transform="translate(1447.4 376.881)"/>
      <path id="Path_17181" data-name="Path 17181" class="cls-2" d="M-1195.118-337.625a2.738,2.738,0,0,0-2.588-1.675c-7.08,0-12.18,2.436-15.3,7.156-1.979,3.045-2.893,6.547-2.893,11.19v11.876a2.8,2.8,0,0,0,2.74,2.817,2.729,2.729,0,0,0,2.74-2.741v-11.876c0-3.426.609-6.014,1.979-8.069,1.979-3.045,5.329-4.491,10.2-4.644h.457a2.8,2.8,0,0,0,2.817-2.74,2.252,2.252,0,0,0-.152-1.294Z" transform="translate(1392.13 371.818)"/>
      <path id="Path_17182" data-name="Path 17182" class="cls-2" d="M-1312.918-337.625a2.738,2.738,0,0,0-2.588-1.675c-7.08,0-12.18,2.436-15.3,7.156-1.979,3.045-2.893,6.547-2.893,11.19v11.876a2.8,2.8,0,0,0,2.74,2.817,2.729,2.729,0,0,0,2.74-2.741v-11.876c0-3.426.609-6.014,1.979-8.069,1.979-3.045,5.329-4.491,10.2-4.644h.457a2.8,2.8,0,0,0,2.817-2.74,2.25,2.25,0,0,0-.152-1.294Z" transform="translate(1420.7 371.818)"/>
      <path id="Path_17183" data-name="Path 17183" class="cls-2" d="M-1289.057-339.3a16.472,16.472,0,0,0-16.443,16.443,16.472,16.472,0,0,0,16.443,16.443h13.626a2.747,2.747,0,0,0,2.74-2.817v-13.7A16.341,16.341,0,0,0-1289.057-339.3Zm10.886,16.443v8.907a2.189,2.189,0,0,1-.533,1.37,1.835,1.835,0,0,1-1.37.533h-8.983a10.946,10.946,0,0,1-7.993-3.5,10.867,10.867,0,0,1-2.893-8.222,10.95,10.95,0,0,1,10.125-10.125,10.68,10.68,0,0,1,8.45,3.2,11.459,11.459,0,0,1,3.2,7.841Z" transform="translate(1413.522 371.818)"/>
      <path id="Path_17184" data-name="Path 17184" class="cls-2" d="M-1244.677-316.31l.913-1.218c3.882-5.177,12.941-17.2,13.094-17.357a2.529,2.529,0,0,0,.533-1.6,2.8,2.8,0,0,0-2.74-2.817h-20.249a2.81,2.81,0,0,0-2.817,2.817,2.43,2.43,0,0,0,.228,1.066,2.834,2.834,0,0,0,2.512,1.675h13.55a.546.546,0,0,1,.457.837l-2.664,3.426c-5.633,7.536-13.855,18.422-14.235,18.955a2.5,2.5,0,0,0-.3,1.294,2.8,2.8,0,0,0,2.74,2.817h20.63a2.81,2.81,0,0,0,2.817-2.817,2.685,2.685,0,0,0-.228-1.066,2.807,2.807,0,0,0-2.588-1.751h-14.007a.546.546,0,0,1-.457-.837Z" transform="translate(1401.8 371.818)"/>
      <path id="Path_17185" data-name="Path 17185" class="cls-2" d="M-1167.715-352.931h-6.775v-6.7a1.4,1.4,0,0,0-1.294-1.37,1.319,1.319,0,0,0-1.37,1.37v6.775h-6.775a1.34,1.34,0,0,0-.99.457,1.261,1.261,0,0,0-.381.914,1.365,1.365,0,0,0,1.37,1.37h6.775v6.775a1.4,1.4,0,0,0,1.294,1.37h.076a1.364,1.364,0,0,0,1.37-1.37v-6.775h6.775a1.34,1.34,0,0,0,.99-.457,1.261,1.261,0,0,0,.381-.914A1.614,1.614,0,0,0-1167.715-352.931Z" transform="translate(1384.824 377)"/>
      <path id="Path_17186" data-name="Path 17186" class="cls-2" d="M15.428-11.2V4.47h-2.4L4.392-6.141V4.47H1.5V-11.2H3.9L12.54-.589V-11.2ZM30.851,2.03V4.47H19.1V-11.2H30.538v2.44H22.009v4.074h7.566v2.4H22.009V2.03ZM56.236-11.2,51.043,4.47H47.954l-3.873-11.6-3.94,11.6H37.03L31.836-11.2h3.022L38.753.709,42.805-11.2h2.686L49.454.776,53.461-11.2Z" transform="translate(85.496 11.199)"/>
    </g>
  </g>
</svg>
